<svg id="Слой_1" data-name="Слой 1" xmlns="http://www.w3.org/2000/svg" viewBox="0 0 1016.04 355.18"><defs><style>.cls-1{fill:#fff;}.cls-2{fill:#da0100;}</style></defs><title>logo</title><path class="cls-1" d="M191.29,484.56H166.81V366.66h24.47Z" transform="translate(-166.81 -164.57)"/><path class="cls-1" d="M282.79,402.37q8.56,7.08,8.56,23.48v58.71H268v-53q0-6.88-1.83-10.56-3.34-6.72-12.7-6.72-11.51,0-15.8,9.84a34,34,0,0,0-2.22,13.28v47.19h-22.8v-87h22.08v12.72q4.38-6.72,8.28-9.68,7-5.28,17.76-5.28Q274.23,395.29,282.79,402.37Z" transform="translate(-166.81 -164.57)"/><path class="cls-1" d="M330.23,456.72q.72,6.08,3.13,8.64,4.26,4.56,15.75,4.56,6.75,0,10.73-2t4-6a6.47,6.47,0,0,0-3.2-5.84q-3.21-2-23.85-6.88-14.86-3.68-20.94-9.2t-6.08-15.68q0-12.08,9.5-20.76T346,394.89q16.35,0,26.65,6.52t11.83,22.52h-22.8a13.5,13.5,0,0,0-2.49-7q-3.77-4.64-12.83-4.64-7.46,0-10.63,2.32t-3.17,5.44a6,6,0,0,0,3.37,5.68q3.37,1.84,23.8,6.32,13.62,3.2,20.42,9.68a22,22,0,0,1,6.72,16.4,26.47,26.47,0,0,1-9.66,21.16q-9.66,8.2-29.86,8.2-20.6,0-30.42-8.68a28.21,28.21,0,0,1-9.82-22.12Z" transform="translate(-166.81 -164.57)"/><path class="cls-1" d="M394.7,414.41V398.17h12.16V373.85h22.56v24.32h14.16v16.24H429.41v46.07q0,5.36,1.36,6.68t8.32,1.32q1,0,2.2,0t2.28-.12v17l-10.8.4q-16.16.56-22.08-5.6-3.84-3.92-3.84-12.08V414.41Z" transform="translate(-166.81 -164.57)"/><path class="cls-1" d="M492.74,431.53a36,36,0,0,0,9.11-2q4.91-2.08,4.91-6.48,0-5.36-3.77-7.4t-11.07-2q-8.19,0-11.59,4a16.5,16.5,0,0,0-3.24,8h-22q.72-11.44,6.43-18.8,9.08-11.52,31.17-11.52A55.57,55.57,0,0,1,518.23,401q11.16,5.68,11.17,21.44v40q0,4.16.16,10.08.24,4.48,1.36,6.08a8.17,8.17,0,0,0,3.36,2.64v3.36h-24.8a25.5,25.5,0,0,1-1.44-5q-.4-2.32-.64-5.28A47.08,47.08,0,0,1,496.46,483a33.09,33.09,0,0,1-16.73,4.24q-11.91,0-19.67-6.76t-7.76-19.16q0-16.08,12.49-23.28,6.85-3.92,20.15-5.6Zm13.94,10.64a25.31,25.31,0,0,1-4.42,2.2,37.52,37.52,0,0,1-6.12,1.56l-5.19,1q-7.3,1.28-10.48,3.12a10.41,10.41,0,0,0-5.39,9.68q0,5.84,3.29,8.44a12.5,12.5,0,0,0,8,2.6,23.82,23.82,0,0,0,13.77-4.32q6.29-4.32,6.54-15.76Z" transform="translate(-166.81 -164.57)"/><path class="cls-1" d="M548.91,460.64h24.24v23.91H548.91Z" transform="translate(-166.81 -164.57)"/><path class="cls-1" d="M684.6,379.21a30,30,0,0,1,5.41,18q0,10.8-5.46,17.36a28.18,28.18,0,0,1-9,6.72,26.26,26.26,0,0,1,13.62,10.4q4.59,7.12,4.59,17.28a34.46,34.46,0,0,1-5.25,18.8A32.45,32.45,0,0,1,666.85,483a81.61,81.61,0,0,1-16.66,1.6H597.06V366.66h57Q675.6,367,684.6,379.21Zm-64,7.92v26h28.65q7.68,0,12.47-2.92t4.79-10.36q0-8.24-6.33-10.88a44.37,44.37,0,0,0-13.93-1.84Zm0,45.51v31.43H649.2q7.67,0,11.94-2.08,7.75-3.84,7.75-14.72,0-9.2-7.51-12.64-4.19-1.92-11.78-2Z" transform="translate(-166.81 -164.57)"/><path class="cls-1" d="M761.56,395.33q.44,0,2,.12v23.36q-2.16-.24-3.84-.32c-1.12-.05-2-.08-2.72-.08q-13.76,0-18.48,9-2.64,5-2.64,15.52v41.67h-23V397.37h21.76v15.2q5.28-8.72,9.2-11.92,6.4-5.36,16.64-5.36C760.91,395.29,761.27,395.3,761.56,395.33Z" transform="translate(-166.81 -164.57)"/><path class="cls-1" d="M833.69,399.14A35.47,35.47,0,0,1,848.76,412a42.83,42.83,0,0,1,6.95,18,111.39,111.39,0,0,1,.75,17.3H793q.53,13.12,9.12,18.4A23.14,23.14,0,0,0,814.64,469q7.79,0,12.66-4a19.18,19.18,0,0,0,4.69-6h23.27q-.92,7.76-8.45,15.76Q835.1,487.52,814,487.52a47.52,47.52,0,0,1-30.71-10.73Q770,466.07,770,441.88q0-22.65,12-34.74t31.18-12.09A49.61,49.61,0,0,1,833.69,399.14Zm-34.1,19.69q-4.83,5-6.07,13.5h39.28q-.62-9.08-6.07-13.78a20,20,0,0,0-13.52-4.7Q804.42,413.85,799.59,418.83Z" transform="translate(-166.81 -164.57)"/><path class="cls-1" d="M858.06,501.28c1.28.1,2.19.17,2.72.2s1,0,1.44,0a7.09,7.09,0,0,0,5.08-1.64q1.72-1.64,1.72-6.36V397.77h22.8v96.14q0,13.2-5.2,19.52t-20.4,6.32q-1,0-3.08-.08t-5.08-.16ZM891.82,387H869v-21h22.8Z" transform="translate(-166.81 -164.57)"/><path class="cls-1" d="M983.8,402.37q8.56,7.08,8.56,23.48v58.71H969v-53q0-6.88-1.83-10.56-3.34-6.72-12.7-6.72-11.51,0-15.8,9.84a34,34,0,0,0-2.22,13.28v47.19h-22.8v-87h22.08v12.72q4.38-6.72,8.28-9.68,7-5.28,17.76-5.28Q975.24,395.29,983.8,402.37Z" transform="translate(-166.81 -164.57)"/><path class="cls-1" d="M1070.37,399.14a35.47,35.47,0,0,1,15.07,12.9,42.83,42.83,0,0,1,6.95,18,111.39,111.39,0,0,1,.75,17.3h-63.5q.53,13.12,9.12,18.4a23.14,23.14,0,0,0,12.57,3.28q7.79,0,12.66-4a19.18,19.18,0,0,0,4.69-6h23.27q-.92,7.76-8.45,15.76-11.71,12.72-32.8,12.72A47.52,47.52,0,0,1,1020,476.79q-13.31-10.72-13.3-34.91,0-22.65,12-34.74t31.18-12.09A49.61,49.61,0,0,1,1070.37,399.14Zm-34.1,19.69q-4.83,5-6.07,13.5h39.28q-.62-9.08-6.07-13.78a20,20,0,0,0-13.52-4.7Q1041.1,413.85,1036.27,418.83Z" transform="translate(-166.81 -164.57)"/><path class="cls-1" d="M1158.38,397.37h24.48l-31.48,87.19h-24l-31.27-87.19h25.6l18.16,64.31Z" transform="translate(-166.81 -164.57)"/><text x="-166.81" y="-164.57"></text><path class="cls-2" d="M670.27,326.62q-11.83,0-18.12,7.14-3.85,4.32-6.1,12.39H634.68q-3.1-9.11-6.85-12.86-6.48-6.67-19.81-6.67H582.85a34.64,34.64,0,0,1-10-1.59,28.71,28.71,0,0,1-14.46-9.56A33.09,33.09,0,0,1,551.86,301a81.54,81.54,0,0,1-1.13-14.52h15q1.69,7.75,4.5,10.54,4.31,4.29,15.1,4.29h21.76q10.5,0,16.69,2.82,10.41,4.79,16.88,18.78,5.16-12.68,12-17t18.94-4.55h23.73q10.41,0,15-5,2.72-2.8,4.78-9.8h15l-.19,6.65a39.62,39.62,0,0,1-8,23.47q-7.65,10.07-22.3,10.07Z" transform="translate(-166.81 -164.57)"/></svg>